<?xml version="1.0" standalone="no"?>
<!DOCTYPE svg PUBLIC "-//W3C//DTD SVG 20010904//EN"
 "http://www.w3.org/TR/2001/REC-SVG-20010904/DTD/svg10.dtd">
<svg version="1.0" xmlns="http://www.w3.org/2000/svg"
 width="1000.000000pt" height="1000.000000pt" viewBox="0 0 1000.000000 1000.000000"
 preserveAspectRatio="xMidYMid meet">
<metadata>
Created by potrace 1.14, written by Peter Selinger 2001-2017
</metadata>
<g transform="translate(0.000000,1000.000000) scale(0.100000,-0.100000)"
fill="#000000" stroke="none">
<path d="M1940 6779 c0 -6 -6 -9 -12 -6 -7 2 -19 -3 -26 -12 -11 -13 -12 -13
-6 -1 4 8 -4 5 -18 -8 -13 -12 -28 -19 -31 -15 -4 3 -7 -1 -7 -11 0 -9 -4 -14
-10 -11 -5 3 -10 2 -10 -4 0 -5 -7 -16 -15 -25 -21 -20 -58 -109 -42 -100 9 5
9 4 0 -7 -18 -18 -19 -2759 -2 -2759 6 0 9 -7 5 -15 -3 -8 -1 -15 5 -15 6 0 7
-4 4 -10 -3 -5 -1 -10 4 -10 6 0 11 -7 11 -15 0 -8 5 -15 10 -15 6 0 10 -6 10
-13 0 -8 11 -20 25 -27 14 -7 25 -17 25 -22 0 -4 7 -8 15 -8 8 0 15 -5 15 -11
0 -5 4 -7 10 -4 5 3 10 2 10 -4 0 -5 8 -8 18 -7 9 2 19 -1 22 -5 6 -8 123 -11
352 -10 86 1 96 3 92 19 -9 31 -9 1242 -1 1242 5 0 6 4 2 9 -8 14 -9 447 -1
460 4 6 4 11 -1 11 -9 0 -8 923 1 946 3 8 2 14 -2 14 -4 0 -6 104 -5 230 l2
230 -225 0 c-145 -1 -224 -5 -224 -11z"/>
<path d="M2766 6781 c-8 -13 -11 -65 -4 -77 4 -5 3 -16 -2 -23 -4 -8 -4 -27 0
-42 5 -17 5 -31 -1 -35 -6 -3 -6 -11 -2 -17 5 -7 7 -23 6 -37 -7 -75 -8 -100
-2 -100 7 0 2 -57 -6 -71 -4 -5 -2 -9 3 -9 9 0 7 -51 -3 -77 -2 -7 0 -13 5
-13 5 0 5 -13 0 -30 -5 -19 -5 -28 1 -25 5 4 5 -4 -1 -19 -5 -14 -6 -28 -1
-30 5 -3 7 -18 4 -33 -8 -59 -9 -84 -3 -88 8 -5 4 -60 -5 -74 -3 -6 -2 -11 3
-11 10 0 7 -54 -3 -71 -4 -5 -2 -9 2 -9 10 0 10 -66 1 -76 -4 -3 -3 -16 1 -28
8 -23 7 -63 -2 -72 -3 -3 -1 -19 3 -35 5 -17 5 -31 -1 -35 -6 -3 -6 -11 -2
-17 5 -7 7 -23 6 -37 -7 -75 -8 -100 -2 -100 7 0 2 -57 -6 -71 -4 -5 -2 -9 3
-9 9 0 7 -51 -3 -77 -2 -7 0 -13 5 -13 5 0 5 -13 0 -30 -5 -19 -5 -28 1 -25 5
4 5 -4 -1 -19 -5 -14 -6 -28 -1 -30 5 -3 7 -18 4 -33 -8 -59 -9 -84 -3 -88 8
-5 4 -60 -5 -74 -3 -6 -2 -11 3 -11 10 0 7 -54 -3 -71 -4 -5 -2 -9 3 -9 9 0 7
-51 -3 -77 -2 -7 0 -13 5 -13 5 0 5 -13 0 -30 -5 -19 -5 -28 1 -25 5 4 5 -4
-1 -19 -5 -14 -6 -28 -1 -30 5 -3 7 -18 4 -33 -8 -60 -9 -84 -3 -88 8 -5 3
-71 -5 -85 -3 -6 -2 -10 4 -10 6 0 6 -11 1 -30 -5 -19 -5 -28 1 -25 5 4 5 -4
-1 -19 -5 -14 -6 -28 -1 -30 5 -3 7 -18 4 -33 -8 -60 -9 -84 -3 -88 8 -5 3
-71 -5 -85 -3 -6 -2 -10 4 -10 6 0 6 -11 1 -30 -5 -19 -5 -28 1 -25 5 4 5 -4
-1 -19 -5 -14 -6 -28 -1 -30 5 -3 6 -18 4 -33 -4 -31 -6 -75 -3 -83 6 -16 4
-62 -2 -66 -5 -3 -5 -11 -1 -17 11 -17 10 -51 -2 -59 -6 -5 -6 -8 1 -8 8 0 9
-11 4 -34 -4 -19 -4 -40 1 -47 4 -7 5 -17 2 -22 -9 -14 -9 -77 0 -77 4 0 5 -4
2 -10 -7 -11 -8 -11 142 -11 57 0 107 2 112 5 5 3 8 269 8 619 0 338 3 619 7
625 4 7 4 12 -1 12 -9 0 -8 281 1 305 3 8 2 15 -2 15 -11 0 -9 1274 3 1282 7
5 7 8 0 8 -6 0 -9 54 -8 145 l2 145 -129 0 c-71 0 -131 -4 -134 -9z"/>
<path d="M3384 6774 c3 -9 1 -23 -5 -30 -7 -9 -8 -14 -1 -14 6 0 8 -12 6 -27
-3 -16 -4 -39 -4 -53 1 -14 1 -50 1 -80 -1 -59 -1 -75 3 -188 1 -40 -2 -78 -6
-85 -4 -6 -2 -17 3 -24 7 -8 7 -18 1 -29 -6 -10 -7 -27 -3 -38 3 -12 5 -34 4
-51 -3 -39 -5 -387 -2 -465 1 -22 0 -95 -1 -140 0 -17 0 -106 1 -135 0 -11 0
-38 0 -60 0 -22 0 -49 0 -60 0 -11 0 -56 0 -100 -1 -44 -1 -89 0 -100 0 -11 0
-38 0 -60 0 -22 0 -49 0 -60 0 -11 0 -65 0 -120 -1 -55 0 -111 0 -125 0 -14 0
-50 0 -80 -1 -59 -1 -75 3 -188 1 -40 -2 -78 -6 -85 -4 -6 -2 -17 3 -24 7 -8
7 -18 1 -29 -6 -10 -7 -27 -3 -38 3 -12 5 -34 4 -51 -3 -39 -3 -31 -3 -245 0
-102 0 -192 0 -200 -1 -8 1 -42 3 -75 2 -33 -1 -66 -6 -73 -6 -7 -6 -12 -1
-11 5 1 12 1 17 0 23 -5 378 -2 387 4 5 3 10 3 10 -2 0 -4 28 -7 63 -5 l63 4
-1 148 c0 100 3 146 10 142 6 -4 6 -1 -1 9 -11 15 -12 77 -1 95 3 6 3 14 0 18
-11 10 -11 126 -1 132 4 3 5 10 1 17 -11 18 -11 217 0 210 6 -4 7 -1 1 8 -11
18 -13 239 -2 245 5 3 5 10 1 17 -12 19 -11 217 1 209 8 -4 8 -1 0 9 -11 15
-12 77 -1 95 3 6 3 14 0 18 -11 10 -11 126 -1 132 4 3 5 11 1 17 -12 19 -10
237 2 237 5 0 4 4 -3 9 -15 9 -15 17 -1 42 4 9 5 19 1 23 -10 10 -10 146 0
152 5 3 5 10 1 17 -12 19 -11 217 1 209 8 -4 8 -1 0 9 -11 15 -12 77 -1 95 3
6 3 14 0 18 -11 10 -11 126 -1 132 4 3 5 11 1 17 -11 17 -11 30 -1 44 5 6 5
14 0 17 -10 6 -9 76 1 92 3 6 3 14 0 18 -11 10 -11 126 -1 132 4 3 5 11 1 17
-9 16 -11 257 -1 263 4 3 3 17 -3 32 -12 30 -11 32 3 49 7 9 -54 12 -267 13
-254 0 -277 -1 -271 -16z"/>
<path d="M4219 6778 c-5 -61 -2 -168 4 -168 5 0 5 -6 0 -12 -9 -17 -10 -148 0
-155 4 -2 3 -12 -1 -21 -10 -20 -9 -128 0 -138 4 -4 4 -14 -1 -23 -9 -19 -8
-127 1 -137 4 -4 4 -14 -1 -23 -6 -14 -7 -127 -1 -141 1 -3 1 -9 0 -15 -7 -25
-4 -135 3 -135 5 0 5 -6 0 -12 -10 -17 -10 -228 0 -228 5 0 5 -6 0 -12 -10
-17 -10 -228 0 -228 5 0 5 -6 0 -12 -9 -17 -10 -148 0 -155 4 -2 3 -12 -1 -21
-7 -15 -9 -127 -2 -142 1 -3 1 -9 0 -15 -7 -25 -4 -215 3 -215 5 0 5 -6 1 -12
-11 -17 -11 -308 -1 -308 5 0 5 -5 1 -12 -10 -16 -11 -229 -1 -235 4 -2 3 -12
-1 -21 -7 -15 -9 -127 -2 -142 1 -3 1 -9 0 -15 -2 -5 -3 -97 -4 -202 l-1 -193
45 -1 c46 0 244 0 358 1 36 0 61 4 57 9 -3 5 -1 12 4 15 10 7 9 25 -2 43 -4 6
-3 14 3 18 7 4 7 12 0 26 -8 14 -7 19 1 19 9 0 9 3 0 14 -8 10 -9 16 -1 21 7
4 7 12 0 25 -7 13 -7 21 0 25 6 3 7 14 2 23 -6 16 -7 42 -2 67 6 25 5 41 -4
53 -5 7 -4 12 3 12 9 0 9 5 1 20 -8 14 -8 26 0 40 8 15 8 20 -1 20 -7 0 -8 5
-3 13 11 15 11 38 1 55 -5 7 -3 12 3 12 8 0 8 6 0 20 -8 14 -8 26 0 41 8 15 8
24 0 34 -8 9 -8 15 0 20 7 4 7 12 0 25 -12 23 -13 33 -2 26 10 -6 9 35 -1 51
-4 6 -3 14 3 18 7 4 7 12 0 26 -8 13 -7 25 0 40 8 15 8 24 0 34 -8 9 -8 15 0
20 6 4 7 12 1 23 -5 10 -6 24 -1 33 5 8 5 21 0 29 -4 7 -4 24 0 36 6 14 5 26
0 29 -6 4 -7 13 -1 23 5 9 10 19 12 22 1 3 -3 15 -10 28 -9 16 -9 27 -1 43 8
15 8 24 0 34 -8 9 -8 15 0 20 7 4 7 12 0 26 -8 14 -7 19 1 19 9 0 9 3 0 14 -9
11 -9 15 0 18 9 3 9 9 0 25 -7 15 -8 24 -1 28 6 4 7 13 2 22 -5 8 -6 32 -2 53
4 21 3 44 -1 51 -4 8 -3 19 3 26 8 9 7 13 -2 13 -8 0 -10 3 -7 6 4 4 -3 15
-15 25 -11 11 -17 19 -13 19 4 0 -2 8 -13 19 -12 10 -19 21 -15 25 3 3 2 6 -4
6 -14 0 -35 49 -27 62 4 6 2 8 -3 5 -6 -4 -14 7 -18 26 -11 45 -16 70 -19 82
-1 6 -5 15 -8 21 -10 16 -2 175 11 207 6 15 9 27 6 27 -2 0 9 27 26 60 19 38
34 58 41 54 7 -5 9 -2 5 9 -4 10 1 21 12 29 23 17 44 56 36 68 -3 6 -2 10 3
10 10 0 9 30 -1 47 -4 6 -3 14 3 18 6 4 7 12 1 23 -5 9 -5 26 0 39 4 12 4 25
0 28 -5 3 -5 21 -1 40 4 19 4 37 0 40 -4 3 -4 21 0 40 4 19 4 37 0 40 -4 3 -4
21 0 40 4 20 4 38 -1 41 -5 3 -5 13 1 23 6 12 5 22 -1 28 -8 8 -7 13 0 17 8 5
8 13 1 27 -8 13 -7 25 0 40 8 15 8 24 0 34 -8 9 -8 15 0 20 7 4 7 12 0 26 -8
13 -7 25 0 40 8 15 8 24 0 34 -8 9 -8 15 0 20 6 4 7 12 1 23 -6 11 -6 24 0 34
5 10 5 19 0 22 -4 3 -5 24 -1 46 4 22 3 43 -1 46 -5 3 -7 10 -4 15 4 5 -85 9
-224 9 -178 0 -231 -3 -232 -12z"/>
<path d="M4856 6395 c0 -217 4 -398 8 -402 4 -4 10 -2 15 5 4 6 24 13 44 14
20 2 37 5 37 8 0 10 63 30 73 23 6 -3 7 -1 3 5 -4 7 -2 13 3 13 20 3 26 5 56
21 17 8 36 13 43 11 6 -3 12 -1 12 4 1 4 5 27 9 51 5 26 5 42 -2 42 -6 0 -5 5
2 13 8 10 7 17 -1 25 -9 9 -9 12 1 12 7 0 9 5 5 12 -5 7 -8 22 -8 33 0 11 3
26 8 33 4 6 3 12 -2 12 -8 0 -6 70 3 98 2 6 1 12 -4 12 -5 0 -5 18 -1 40 4 22
4 40 0 40 -4 0 -4 18 0 40 4 22 4 40 0 40 -4 0 -4 18 0 40 4 22 4 40 0 40 -4
0 -4 18 0 40 4 22 4 40 -1 40 -5 0 -6 7 -3 15 5 13 -15 15 -147 15 l-154 0 1
-395z"/>
<path d="M5499 6788 c-1 -2 -2 -126 -3 -275 -1 -216 2 -274 12 -278 7 -3 10 0
7 5 -6 9 -1 11 38 14 6 1 15 5 18 9 3 5 12 9 20 11 8 1 24 8 37 14 12 7 22 11
22 8 0 -3 17 2 37 10 38 16 68 25 91 26 6 1 12 6 12 11 0 5 9 7 20 4 11 -3 20
-2 20 2 0 11 71 31 83 24 6 -3 7 -1 3 5 -5 8 2 12 19 12 15 0 35 5 45 10 10 6
29 11 42 12 22 2 23 6 24 85 0 46 -2 83 -6 83 -4 0 -7 6 -7 14 0 22 -24 76
-34 76 -5 0 -8 3 -7 8 7 20 -88 92 -122 92 -11 0 -20 5 -20 10 0 8 -347 16
-351 8z"/>
<path d="M6671 6298 c-10 -3 -39 -5 -64 -5 -26 1 -47 -2 -47 -7 0 -4 -9 -6
-20 -3 -11 3 -20 2 -20 -3 0 -4 -17 -7 -37 -6 -21 1 -54 -2 -73 -6 -45 -10
-89 -18 -115 -21 -11 -1 -22 -5 -25 -9 -3 -4 -25 -10 -48 -13 -24 -3 -52 -10
-63 -15 -10 -6 -19 -8 -19 -4 0 3 -10 0 -22 -8 -13 -8 -33 -14 -45 -13 -13 1
-23 -1 -23 -5 0 -7 -100 -35 -112 -32 -5 1 -8 -2 -8 -7 0 -7 -67 -23 -86 -20
-4 0 -10 -3 -13 -8 -7 -9 -97 -44 -121 -47 -8 -1 -25 -8 -37 -14 -13 -7 -23
-10 -23 -6 0 3 -11 -1 -25 -10 -14 -9 -25 -14 -25 -11 0 3 -13 -1 -30 -10 -16
-9 -30 -13 -30 -11 0 3 -26 -7 -57 -21 -61 -26 -93 -39 -105 -42 -4 -1 -24 -9
-43 -17 -20 -8 -41 -12 -47 -8 -7 4 -8 3 -4 -4 6 -11 -6 -16 -26 -13 -5 0 -8
-4 -8 -10 0 -6 -6 -9 -14 -6 -8 3 -16 1 -18 -4 -2 -6 -10 -11 -18 -12 -8 -2
-30 -10 -49 -20 -19 -9 -40 -17 -47 -17 -7 0 -14 -5 -16 -10 -2 -6 -13 -12
-25 -13 -12 0 -19 -5 -17 -9 3 -4 -4 -8 -15 -8 -10 0 -21 -5 -23 -10 -2 -6
-13 -12 -26 -13 -12 0 -22 -5 -22 -10 0 -4 -4 -5 -10 -2 -5 3 -10 2 -10 -3 0
-4 -16 -14 -35 -22 -19 -7 -36 -19 -39 -27 -3 -7 -13 -13 -21 -13 -9 0 -13 -4
-10 -10 3 -5 2 -10 -3 -10 -16 0 -54 -90 -61 -145 -7 -47 0 -88 21 -135 11
-26 35 -60 41 -60 5 0 5 -4 2 -10 -3 -5 -1 -10 5 -10 6 0 29 -17 49 -37 21
-21 48 -44 59 -52 12 -8 18 -19 15 -24 -3 -6 -1 -7 4 -4 6 4 32 -14 58 -38 26
-25 49 -45 51 -45 3 0 24 -19 49 -42 65 -63 106 -98 116 -98 5 0 9 -4 9 -9 0
-4 21 -19 48 -32 26 -13 49 -27 52 -30 8 -10 134 -8 141 2 3 5 17 10 32 11 15
1 27 6 27 11 0 5 6 7 14 4 7 -3 18 -1 22 3 5 5 21 11 34 14 14 2 26 5 28 7 1
1 7 3 12 4 6 1 12 4 15 5 3 1 8 3 13 5 4 1 14 4 22 7 94 36 395 126 403 121 6
-3 7 -1 3 5 -6 11 19 18 47 13 4 0 7 3 7 8 0 5 15 13 33 16 17 4 37 10 42 14
6 4 22 8 38 10 24 2 27 -1 28 -26 0 -15 2 -35 4 -43 9 -46 37 -198 39 -215 4
-25 20 -88 47 -178 12 -37 22 -73 23 -80 1 -7 7 -22 14 -33 6 -12 8 -24 5 -28
-3 -3 -1 -6 5 -6 11 0 28 -38 24 -53 -1 -5 1 -6 6 -3 5 3 18 -1 28 -8 13 -10
24 -11 36 -5 10 5 18 7 18 3 0 -3 6 -2 13 4 21 17 217 73 235 68 10 -4 30 -30
45 -59 43 -84 60 -109 105 -154 23 -24 39 -43 35 -44 -14 0 110 -40 141 -44
16 -3 33 -9 36 -16 4 -6 11 -10 16 -8 17 4 34 -46 32 -94 -1 -26 -5 -50 -9
-52 -3 -3 -3 -23 1 -45 8 -41 32 -69 61 -70 9 0 19 -3 23 -7 3 -4 16 -8 27
-10 24 -4 41 -19 59 -52 9 -18 10 -51 5 -130 -9 -127 -8 -150 6 -167 6 -8 8
-14 4 -14 -4 0 5 -20 19 -44 14 -24 22 -47 18 -51 -4 -3 -2 -5 4 -3 7 1 12 -1
12 -6 1 -21 58 -38 112 -31 30 3 60 6 67 7 7 1 11 6 10 12 -1 5 3 10 10 11 7
0 22 8 33 18 11 9 23 17 26 17 3 0 20 16 36 35 17 19 35 32 40 29 5 -3 7 -1 6
4 -2 5 10 21 25 36 15 14 25 26 21 26 -4 0 3 8 14 19 12 10 22 24 22 30 0 7 5
9 10 6 6 -3 10 1 10 10 0 8 9 23 19 32 11 9 18 20 16 24 -3 4 2 12 10 19 8 7
15 19 15 27 0 8 4 12 9 9 5 -4 8 2 7 11 -2 10 0 20 4 23 11 7 22 76 21 130 0
25 -10 79 -21 120 -11 41 -21 81 -22 88 -1 6 -5 12 -10 12 -4 0 -8 4 -8 10 0
5 -12 35 -27 67 -15 32 -28 64 -28 71 0 7 -5 16 -10 20 -6 4 -11 13 -13 20 -1
7 -14 31 -27 52 -14 22 -22 40 -18 40 5 0 2 4 -5 9 -7 4 -14 14 -15 22 -2 8
-13 31 -25 50 -12 20 -22 41 -22 48 0 6 -4 11 -9 11 -5 0 -14 13 -21 30 -7 16
-21 39 -31 51 -10 12 -16 26 -13 30 3 5 1 9 -4 9 -5 0 -21 18 -36 40 -14 22
-23 40 -20 40 4 0 -3 8 -14 19 -12 10 -22 21 -22 25 0 6 -30 44 -58 72 -7 8
-10 14 -6 14 4 0 -1 7 -12 15 -10 8 -15 15 -11 15 4 0 -3 11 -18 24 -14 13
-39 41 -55 62 -44 57 -108 129 -167 190 -29 29 -53 59 -53 65 0 7 -3 10 -6 6
-8 -7 -34 17 -34 32 0 6 -3 11 -8 11 -4 0 -13 13 -20 30 -16 36 -12 106 6 103
6 -2 12 1 12 5 0 5 20 19 44 31 24 13 61 38 82 56 21 18 42 31 46 28 5 -2 7 1
6 9 -2 7 3 12 10 11 6 -2 12 4 12 12 0 8 8 15 17 15 9 0 13 3 10 6 -4 4 3 15
15 25 11 11 17 19 13 19 -4 0 2 8 13 19 12 10 22 24 22 30 0 11 20 52 31 61 9
8 7 180 -2 180 -5 0 -9 9 -9 19 0 11 -5 23 -10 26 -6 4 -8 11 -5 16 4 5 1 9
-5 9 -6 0 -8 5 -5 10 3 6 1 10 -6 10 -7 0 -10 3 -6 6 11 11 -76 85 -128 109
-62 28 -103 43 -135 49 -14 3 -34 7 -45 9 -90 19 -394 30 -434 15z"/>
<path d="M4859 4969 c-1 -8 -2 -312 -2 -677 l-2 -662 43 -1 c53 -1 114 -1 198
0 54 1 65 4 61 16 -4 8 -3 16 2 19 8 5 6 64 -3 73 -3 4 -1 12 5 20 8 9 8 13 1
13 -7 0 -8 10 -2 30 5 17 5 30 1 30 -9 0 -8 31 3 48 4 6 3 12 -2 12 -6 0 -7
14 -2 34 4 19 4 40 -1 47 -4 7 -3 19 3 26 7 9 7 13 0 13 -6 0 -7 13 -2 34 4
19 4 40 -1 47 -4 7 -3 19 3 26 7 9 7 13 0 13 -6 0 -7 13 -2 34 4 19 4 40 -1
47 -4 7 -3 19 3 26 7 9 7 13 0 13 -7 0 -8 10 -2 30 5 17 5 30 1 30 -9 0 -8 31
3 48 4 6 3 12 -2 12 -6 0 -7 14 -2 34 4 19 6 37 3 40 -8 8 -10 56 -3 56 7 0 6
28 0 38 -6 7 -3 49 4 60 4 6 3 12 -3 12 -6 0 -6 11 -1 30 5 17 5 30 1 30 -5 0
-7 12 -5 28 2 20 -5 35 -31 59 -19 18 -35 29 -35 26 0 -4 -8 2 -18 13 -10 10
-38 35 -62 54 -24 19 -58 49 -75 65 -62 60 -75 69 -76 54z"/>
<path d="M6018 4825 c-3 -3 -14 -7 -24 -9 -11 -2 -52 -16 -93 -30 -40 -14 -77
-23 -82 -20 -5 3 -9 1 -9 -4 0 -7 -75 -35 -100 -37 -3 0 -11 -4 -17 -8 -7 -5
-17 -6 -22 -3 -5 4 -11 1 -13 -4 -2 -6 -14 -13 -28 -15 -14 -3 -36 -8 -50 -11
-14 -3 -32 -7 -40 -8 -47 -7 -45 12 -45 -531 l0 -510 85 -5 c87 -5 239 3 298
15 18 4 39 16 46 27 8 11 19 17 25 13 6 -3 11 -2 11 3 0 5 16 29 34 53 19 24
33 45 30 48 -2 2 2 14 9 25 11 17 14 118 13 515 -1 469 -4 520 -28 496z"/>
</g>
</svg>
